<?xml version="1.0" encoding="iso-8859-1"?>
<!-- Generator: Adobe Illustrator 19.0.0, SVG Export Plug-In . SVG Version: 6.00 Build 0)  -->
<svg version="1.1" id="Layer_1" xmlns="http://www.w3.org/2000/svg" xmlns:xlink="http://www.w3.org/1999/xlink" x="0px" y="0px"
	 viewBox="0 0 511.988 511.988" style="enable-background:new 0 0 511.988 511.988;" xml:space="preserve">
<rect x="202.654" y="202.664" style="fill:#FFCE54;" width="106.68" height="42.655"/>
<path style="fill:#DA4453;" d="M373.335,234.666H159.996c-5.891,0-10.664,4.766-10.664,10.656s4.773,10.672,10.664,10.672h213.339
	c5.875,0,10.655-4.781,10.655-10.672S379.21,234.666,373.335,234.666z"/>
<path style="fill:#F4BE8E;" d="M426.646,245.322H106.661c-11.757,0-21.327,9.578-21.327,21.343c0,11.766,9.57,21.328,21.327,21.328
	h319.985c11.781,0,21.343-9.562,21.343-21.328C447.989,254.9,438.428,245.322,426.646,245.322z"/>
<path style="fill:#EAAD7A;" d="M405.334,287.993h-320c-11.766,0-21.336,9.562-21.336,21.328c0,11.765,9.57,21.343,21.336,21.343h320
	c11.75,0,21.312-9.578,21.312-21.343S417.084,287.993,405.334,287.993z"/>
<path style="fill:#F4BE8E;" d="M426.646,330.664H106.661c-11.757,0-21.327,9.562-21.327,21.327c0,11.766,9.57,21.328,21.327,21.328
	h319.985c11.781,0,21.343-9.562,21.343-21.328C447.989,340.226,438.428,330.664,426.646,330.664z"/>
<path style="fill:#EAAD7A;" d="M405.334,373.319h-320c-11.766,0-21.336,9.578-21.336,21.344c0,11.765,9.57,21.327,21.336,21.327h320
	c11.75,0,21.312-9.562,21.312-21.327C426.646,382.897,417.084,373.319,405.334,373.319z"/>
<path style="fill:#F4BE8E;" d="M405.334,415.99h-320c-11.766,0-21.336,9.562-21.336,21.327s9.57,21.344,21.336,21.344h320
	c11.75,0,21.312-9.578,21.312-21.344S417.084,415.99,405.334,415.99z"/>
<g>
	<path style="fill:#E6E9ED;" d="M349.633,142.638c-0.016-0.031-2.328-3.094-3.453-6.969c-1.297-4.547-0.5-7.844,2.703-11.047
		c8.672-8.703,11.516-19.999,8.078-31.812c-2.328-7.938-6.797-13.531-7.406-14.25c0-0.016,0-0.016,0-0.016
		c0-0.016-0.016-0.016-0.016-0.016l0,0c-1.953-2.359-4.922-3.859-8.203-3.859c-5.906,0-10.688,4.766-10.688,10.656
		c0,2.594,0.938,4.969,2.469,6.812l0,0c0.016,0.031,2.266,2.938,3.359,6.656c1.266,4.359,0.453,7.577-2.703,10.765
		c-8.656,8.672-11.516,20.047-8.094,32c2.328,8.093,6.844,13.843,7.344,14.468l0,0c1.953,2.422,4.938,3.969,8.312,3.969
		c5.875,0,10.656-4.781,10.656-10.672c0-2.531-0.891-4.858-2.375-6.687h0.017V142.638z"/>
	<path style="fill:#E6E9ED;" d="M274.478,57.343c-3.172-11.953-9.305-20.234-9.992-21.141l-0.016,0.016
		c-1.945-2.562-5.016-4.219-8.477-4.219c-5.891,0-10.664,4.781-10.664,10.672c0,2.406,0.805,4.609,2.148,6.406h-0.008
		c0.047,0.062,4.492,6.109,6.539,14.312c2.453,9.843,0.492,18.187-6.008,25.546c-11.391,12.891-15.023,28.687-10.492,45.718
		c3.172,11.937,9.305,20.233,9.992,21.14l0.008-0.016c1.953,2.562,5.023,4.219,8.484,4.219c5.891,0,10.664-4.781,10.664-10.672
		c0-2.422-0.82-4.655-2.188-6.452h0.016c-0.047-0.062-4.273-5.844-6.359-13.703c-2.688-10.078-0.766-18.609,5.859-26.108
		C275.369,90.17,279.01,74.357,274.478,57.343z"/>
	<path style="fill:#E6E9ED;" d="M186.284,92.81c-2.328-7.953-6.812-13.562-7.39-14.266l0,0c-0.008,0-0.016-0.016-0.016-0.016h-0.008
		c-1.953-2.359-4.906-3.859-8.211-3.859c-5.891,0-10.664,4.766-10.664,10.656c0,2.578,0.914,4.938,2.43,6.781l-0.039-0.047
		c0.031,0.031,2.492,3.156,3.547,7.188c1.086,4.141,0.242,7.233-2.828,10.312c-8.641,8.672-11.516,20.047-8.086,32
		c2.328,8.093,6.836,13.843,7.336,14.468h0.008c1.953,2.422,4.945,3.969,8.297,3.969c5.891,0,10.672-4.781,10.672-10.672
		c0-2.531-0.891-4.858-2.367-6.687l0,0c-0.023-0.031-2.328-3.094-3.438-6.969c-1.305-4.547-0.5-7.844,2.695-11.047
		C186.878,115.919,189.745,104.623,186.284,92.81z M162.433,92.123c0.008,0,0.016,0.016,0.016,0.016l0,0L162.433,92.123z"/>
</g>
<path style="fill:#434A54;" d="M501.332,458.661H10.664C4.773,458.661,0,463.427,0,469.317s4.773,10.672,10.664,10.672h490.668
	c5.875,0,10.656-4.781,10.656-10.672S507.207,458.661,501.332,458.661z"/>
<g>
	<path style="fill:#ED5564;" d="M149.332,405.318c0,5.891,4.773,10.672,10.664,10.672s10.664-4.781,10.664-10.672V245.322h-21.328
		V405.318z"/>
	<path style="fill:#ED5564;" d="M277.338,362.663c0,5.891,4.766,10.656,10.655,10.656c5.891,0,10.656-4.766,10.656-10.656V245.322
		h-21.312v117.341H277.338z"/>
	<path style="fill:#ED5564;" d="M362.648,245.322v63.999c0,5.891,4.78,10.671,10.687,10.671c5.875,0,10.655-4.78,10.655-10.671
		v-63.999H362.648z"/>
	<path style="fill:#ED5564;" d="M213.331,245.322v54.343c0,5.891,4.773,10.656,10.663,10.656c5.891,0,10.664-4.766,10.664-10.656
		v-54.343L213.331,245.322L213.331,245.322z"/>
</g>
<g>
</g>
<g>
</g>
<g>
</g>
<g>
</g>
<g>
</g>
<g>
</g>
<g>
</g>
<g>
</g>
<g>
</g>
<g>
</g>
<g>
</g>
<g>
</g>
<g>
</g>
<g>
</g>
<g>
</g>
</svg>
